<svg width="30" height="30" viewBox="0 0 30 30" fill="none" xmlns="http://www.w3.org/2000/svg">
<rect x="0.5" y="0.5" width="29" height="29" rx="14.5" stroke="white"/>
<path d="M9.72727 22H19.4242C19.8259 22 20.1515 21.6744 20.1515 21.2727V13.0303C20.1515 12.6287 19.8259 12.303 19.4242 12.303H18.697V10.1212C18.697 7.84878 16.8482 6 14.5758 6C12.3033 6 10.4545 7.84878 10.4545 10.1212V12.303H9.72727C9.32562 12.303 9 12.6287 9 13.0303V21.2727C9 21.6744 9.32562 22 9.72727 22ZM15.303 17.3933V18.3636C15.303 18.7653 14.9774 19.0909 14.5758 19.0909C14.1741 19.0909 13.8485 18.7653 13.8485 18.3636V17.3933C13.5543 17.1719 13.3636 16.82 13.3636 16.4242C13.3636 15.7559 13.9074 15.2121 14.5758 15.2121C15.2441 15.2121 15.7879 15.7559 15.7879 16.4242C15.7879 16.82 15.5972 17.1719 15.303 17.3933ZM11.9091 10.1212C11.9091 8.65081 13.1054 7.45455 14.5758 7.45455C16.0462 7.45455 17.2424 8.65081 17.2424 10.1212V12.303H11.9091V10.1212Z" fill="white"/>
</svg>
