<svg width="114" height="30" viewBox="0 0 114 30" fill="none" xmlns="http://www.w3.org/2000/svg">
<rect width="114" height="30" rx="15" fill="url(#paint0_linear_14_40)"/>
<path d="M13.5723 9.04688H14.8506L18.1113 17.1611L21.3652 9.04688H22.6504L18.6035 19H17.6055L13.5723 9.04688ZM13.1553 9.04688H14.2832L14.4678 15.1172V19H13.1553V9.04688ZM21.9326 9.04688H23.0605V19H21.748V15.1172L21.9326 9.04688ZM29.5479 17.7354V13.9277C29.5479 13.6361 29.4886 13.3831 29.3701 13.1689C29.2562 12.9502 29.083 12.7816 28.8506 12.6631C28.6182 12.5446 28.3311 12.4854 27.9893 12.4854C27.6702 12.4854 27.39 12.54 27.1484 12.6494C26.9115 12.7588 26.7246 12.9023 26.5879 13.0801C26.4557 13.2578 26.3896 13.4492 26.3896 13.6543H25.125C25.125 13.39 25.1934 13.1279 25.3301 12.8682C25.4668 12.6084 25.6628 12.3737 25.918 12.1641C26.1777 11.9499 26.4876 11.7812 26.8477 11.6582C27.2122 11.5306 27.6178 11.4668 28.0645 11.4668C28.6022 11.4668 29.0762 11.5579 29.4863 11.7402C29.901 11.9225 30.2246 12.1982 30.457 12.5674C30.694 12.932 30.8125 13.39 30.8125 13.9414V17.3867C30.8125 17.6328 30.833 17.8949 30.874 18.1729C30.9196 18.4508 30.9857 18.6901 31.0723 18.8906V19H29.7529C29.6891 18.8542 29.639 18.6605 29.6025 18.4189C29.5661 18.1729 29.5479 17.945 29.5479 17.7354ZM29.7666 14.5156L29.7803 15.4043H28.502C28.1419 15.4043 27.8206 15.4339 27.5381 15.4932C27.2555 15.5479 27.0186 15.6322 26.8271 15.7461C26.6357 15.86 26.4899 16.0036 26.3896 16.1768C26.2894 16.3454 26.2393 16.5436 26.2393 16.7715C26.2393 17.0039 26.2917 17.2158 26.3965 17.4072C26.5013 17.5986 26.6585 17.7513 26.8682 17.8652C27.0824 17.9746 27.3444 18.0293 27.6543 18.0293C28.0417 18.0293 28.3835 17.9473 28.6797 17.7832C28.9759 17.6191 29.2106 17.4186 29.3838 17.1816C29.5615 16.9447 29.6572 16.7145 29.6709 16.4912L30.2109 17.0996C30.179 17.291 30.0924 17.5029 29.9512 17.7354C29.8099 17.9678 29.6208 18.1911 29.3838 18.4053C29.1514 18.6149 28.8734 18.7904 28.5498 18.9316C28.2308 19.0684 27.8708 19.1367 27.4697 19.1367C26.9684 19.1367 26.5286 19.0387 26.1504 18.8428C25.7767 18.6468 25.485 18.3848 25.2754 18.0566C25.0703 17.724 24.9678 17.3525 24.9678 16.9424C24.9678 16.5459 25.0452 16.1973 25.2002 15.8965C25.3551 15.5911 25.5785 15.3382 25.8701 15.1377C26.1618 14.9326 26.5127 14.7777 26.9229 14.6729C27.333 14.568 27.791 14.5156 28.2969 14.5156H29.7666ZM34.0664 13.0254V21.8438H32.7949V11.6035H33.957L34.0664 13.0254ZM39.0498 15.2402V15.3838C39.0498 15.9215 38.986 16.4206 38.8584 16.8809C38.7308 17.3366 38.5439 17.7331 38.2979 18.0703C38.0563 18.4076 37.7578 18.6696 37.4023 18.8564C37.0469 19.0433 36.639 19.1367 36.1787 19.1367C35.7093 19.1367 35.2946 19.0592 34.9346 18.9043C34.5745 18.7493 34.2692 18.5238 34.0186 18.2275C33.7679 17.9313 33.5674 17.5758 33.417 17.1611C33.2712 16.7464 33.1709 16.2793 33.1162 15.7598V14.9941C33.1709 14.4473 33.2734 13.9574 33.4238 13.5244C33.5742 13.0915 33.7725 12.7223 34.0186 12.417C34.2692 12.1071 34.5723 11.8724 34.9277 11.7129C35.2832 11.5488 35.6934 11.4668 36.1582 11.4668C36.623 11.4668 37.0355 11.5579 37.3955 11.7402C37.7555 11.918 38.0586 12.1732 38.3047 12.5059C38.5508 12.8385 38.7354 13.2373 38.8584 13.7021C38.986 14.1624 39.0498 14.6751 39.0498 15.2402ZM37.7783 15.3838V15.2402C37.7783 14.8711 37.7396 14.5247 37.6621 14.2012C37.5846 13.873 37.4639 13.5859 37.2998 13.3398C37.1403 13.0892 36.9352 12.8932 36.6846 12.752C36.4339 12.6061 36.1354 12.5332 35.7891 12.5332C35.4701 12.5332 35.1921 12.5879 34.9551 12.6973C34.7227 12.8066 34.5244 12.9548 34.3604 13.1416C34.1963 13.3239 34.0618 13.5335 33.957 13.7705C33.8568 14.0029 33.7816 14.2445 33.7314 14.4951V16.2656C33.8226 16.5846 33.9502 16.8854 34.1143 17.168C34.2783 17.446 34.4971 17.6715 34.7705 17.8447C35.0439 18.0133 35.388 18.0977 35.8027 18.0977C36.1445 18.0977 36.4385 18.027 36.6846 17.8857C36.9352 17.7399 37.1403 17.5417 37.2998 17.291C37.4639 17.0404 37.5846 16.7533 37.6621 16.4297C37.7396 16.1016 37.7783 15.7529 37.7783 15.3838ZM45.0244 17.7354V13.9277C45.0244 13.6361 44.9652 13.3831 44.8467 13.1689C44.7327 12.9502 44.5596 12.7816 44.3271 12.6631C44.0947 12.5446 43.8076 12.4854 43.4658 12.4854C43.1468 12.4854 42.8665 12.54 42.625 12.6494C42.388 12.7588 42.2012 12.9023 42.0645 13.0801C41.9323 13.2578 41.8662 13.4492 41.8662 13.6543H40.6016C40.6016 13.39 40.6699 13.1279 40.8066 12.8682C40.9434 12.6084 41.1393 12.3737 41.3945 12.1641C41.6543 11.9499 41.9642 11.7812 42.3242 11.6582C42.6888 11.5306 43.0944 11.4668 43.541 11.4668C44.0788 11.4668 44.5527 11.5579 44.9629 11.7402C45.3776 11.9225 45.7012 12.1982 45.9336 12.5674C46.1706 12.932 46.2891 13.39 46.2891 13.9414V17.3867C46.2891 17.6328 46.3096 17.8949 46.3506 18.1729C46.3962 18.4508 46.4622 18.6901 46.5488 18.8906V19H45.2295C45.1657 18.8542 45.1156 18.6605 45.0791 18.4189C45.0426 18.1729 45.0244 17.945 45.0244 17.7354ZM45.2432 14.5156L45.2568 15.4043H43.9785C43.6185 15.4043 43.2972 15.4339 43.0146 15.4932C42.7321 15.5479 42.4951 15.6322 42.3037 15.7461C42.1123 15.86 41.9665 16.0036 41.8662 16.1768C41.766 16.3454 41.7158 16.5436 41.7158 16.7715C41.7158 17.0039 41.7682 17.2158 41.873 17.4072C41.9779 17.5986 42.1351 17.7513 42.3447 17.8652C42.5589 17.9746 42.821 18.0293 43.1309 18.0293C43.5182 18.0293 43.86 17.9473 44.1562 17.7832C44.4525 17.6191 44.6872 17.4186 44.8604 17.1816C45.0381 16.9447 45.1338 16.7145 45.1475 16.4912L45.6875 17.0996C45.6556 17.291 45.569 17.5029 45.4277 17.7354C45.2865 17.9678 45.0973 18.1911 44.8604 18.4053C44.6279 18.6149 44.3499 18.7904 44.0264 18.9316C43.7074 19.0684 43.3473 19.1367 42.9463 19.1367C42.445 19.1367 42.0052 19.0387 41.627 18.8428C41.2533 18.6468 40.9616 18.3848 40.752 18.0566C40.5469 17.724 40.4443 17.3525 40.4443 16.9424C40.4443 16.5459 40.5218 16.1973 40.6768 15.8965C40.8317 15.5911 41.055 15.3382 41.3467 15.1377C41.6383 14.9326 41.9893 14.7777 42.3994 14.6729C42.8096 14.568 43.2676 14.5156 43.7734 14.5156H45.2432ZM56.4131 17.5645V8.5H57.6846V19H56.5225L56.4131 17.5645ZM51.4365 15.3838V15.2402C51.4365 14.6751 51.5049 14.1624 51.6416 13.7021C51.7829 13.2373 51.9811 12.8385 52.2363 12.5059C52.4961 12.1732 52.8037 11.918 53.1592 11.7402C53.5192 11.5579 53.9202 11.4668 54.3623 11.4668C54.8271 11.4668 55.2327 11.5488 55.5791 11.7129C55.93 11.8724 56.2262 12.1071 56.4678 12.417C56.7139 12.7223 56.9076 13.0915 57.0488 13.5244C57.1901 13.9574 57.2881 14.4473 57.3428 14.9941V15.623C57.2926 16.1654 57.1947 16.653 57.0488 17.0859C56.9076 17.5189 56.7139 17.888 56.4678 18.1934C56.2262 18.4987 55.93 18.7334 55.5791 18.8975C55.2282 19.057 54.818 19.1367 54.3486 19.1367C53.9157 19.1367 53.5192 19.0433 53.1592 18.8564C52.8037 18.6696 52.4961 18.4076 52.2363 18.0703C51.9811 17.7331 51.7829 17.3366 51.6416 16.8809C51.5049 16.4206 51.4365 15.9215 51.4365 15.3838ZM52.708 15.2402V15.3838C52.708 15.7529 52.7445 16.0993 52.8174 16.4229C52.8949 16.7464 53.0133 17.0312 53.1729 17.2773C53.3324 17.5234 53.5352 17.7171 53.7812 17.8584C54.0273 17.9951 54.3213 18.0635 54.6631 18.0635C55.0824 18.0635 55.4264 17.9746 55.6953 17.7969C55.9688 17.6191 56.1875 17.3844 56.3516 17.0928C56.5156 16.8011 56.6432 16.4844 56.7344 16.1426V14.4951C56.6797 14.2445 56.5999 14.0029 56.4951 13.7705C56.3949 13.5335 56.2627 13.3239 56.0986 13.1416C55.9391 12.9548 55.7409 12.8066 55.5039 12.6973C55.2715 12.5879 54.9958 12.5332 54.6768 12.5332C54.3304 12.5332 54.0319 12.6061 53.7812 12.752C53.5352 12.8932 53.3324 13.0892 53.1729 13.3398C53.0133 13.5859 52.8949 13.873 52.8174 14.2012C52.7445 14.5247 52.708 14.8711 52.708 15.2402ZM62.7227 19.1367C62.2077 19.1367 61.7406 19.0501 61.3213 18.877C60.9066 18.6992 60.5488 18.4508 60.248 18.1318C59.9518 17.8128 59.724 17.4346 59.5645 16.9971C59.4049 16.5596 59.3252 16.0811 59.3252 15.5615V15.2744C59.3252 14.6729 59.4141 14.1374 59.5918 13.668C59.7695 13.194 60.0111 12.793 60.3164 12.4648C60.6217 12.1367 60.9681 11.8883 61.3555 11.7197C61.7428 11.5511 62.1439 11.4668 62.5586 11.4668C63.0872 11.4668 63.543 11.5579 63.9258 11.7402C64.3132 11.9225 64.6299 12.1777 64.876 12.5059C65.1221 12.8294 65.3044 13.2122 65.4229 13.6543C65.5413 14.0918 65.6006 14.5703 65.6006 15.0898V15.6572H60.0771V14.625H64.3359V14.5293C64.3177 14.2012 64.2493 13.8822 64.1309 13.5723C64.0169 13.2624 63.8346 13.0072 63.584 12.8066C63.3333 12.6061 62.9915 12.5059 62.5586 12.5059C62.2715 12.5059 62.0072 12.5674 61.7656 12.6904C61.5241 12.8089 61.3167 12.9867 61.1436 13.2236C60.9704 13.4606 60.8359 13.75 60.7402 14.0918C60.6445 14.4336 60.5967 14.8278 60.5967 15.2744V15.5615C60.5967 15.9124 60.6445 16.2428 60.7402 16.5527C60.8405 16.8581 60.984 17.127 61.1709 17.3594C61.3623 17.5918 61.5924 17.7741 61.8613 17.9062C62.1348 18.0384 62.4447 18.1045 62.791 18.1045C63.2376 18.1045 63.6159 18.0133 63.9258 17.8311C64.2357 17.6488 64.5068 17.4049 64.7393 17.0996L65.5049 17.708C65.3454 17.9495 65.1426 18.1797 64.8965 18.3984C64.6504 18.6172 64.3473 18.7949 63.9873 18.9316C63.6318 19.0684 63.2103 19.1367 62.7227 19.1367ZM76.75 15.835H78.0625C77.9941 16.4639 77.8141 17.0267 77.5225 17.5234C77.2308 18.0202 76.8184 18.4144 76.2852 18.7061C75.752 18.9932 75.0866 19.1367 74.2891 19.1367C73.7057 19.1367 73.1748 19.0273 72.6963 18.8086C72.2223 18.5898 71.8145 18.2799 71.4727 17.8789C71.1309 17.4733 70.8665 16.988 70.6797 16.4229C70.4974 15.8532 70.4062 15.2197 70.4062 14.5225V13.5312C70.4062 12.834 70.4974 12.2028 70.6797 11.6377C70.8665 11.068 71.1331 10.5804 71.4795 10.1748C71.8304 9.76921 72.252 9.45703 72.7441 9.23828C73.2363 9.01953 73.79 8.91016 74.4053 8.91016C75.1572 8.91016 75.793 9.05143 76.3125 9.33398C76.832 9.61654 77.2354 10.0085 77.5225 10.5098C77.8141 11.0065 77.9941 11.583 78.0625 12.2393H76.75C76.6862 11.7744 76.5677 11.3757 76.3945 11.043C76.2214 10.7057 75.9753 10.446 75.6562 10.2637C75.3372 10.0814 74.9202 9.99023 74.4053 9.99023C73.9632 9.99023 73.5736 10.0745 73.2363 10.2432C72.9036 10.4118 72.6234 10.651 72.3955 10.9609C72.1722 11.2708 72.0036 11.6423 71.8896 12.0752C71.7757 12.5081 71.7188 12.9889 71.7188 13.5176V14.5225C71.7188 15.0101 71.7689 15.4681 71.8691 15.8965C71.974 16.3249 72.1312 16.7008 72.3408 17.0244C72.5505 17.348 72.8171 17.6032 73.1406 17.79C73.4642 17.9723 73.847 18.0635 74.2891 18.0635C74.8496 18.0635 75.2962 17.9746 75.6289 17.7969C75.9616 17.6191 76.2122 17.3639 76.3809 17.0312C76.554 16.6986 76.6771 16.2998 76.75 15.835ZM84.0303 17.7354V13.9277C84.0303 13.6361 83.971 13.3831 83.8525 13.1689C83.7386 12.9502 83.5654 12.7816 83.333 12.6631C83.1006 12.5446 82.8135 12.4854 82.4717 12.4854C82.1527 12.4854 81.8724 12.54 81.6309 12.6494C81.3939 12.7588 81.207 12.9023 81.0703 13.0801C80.9382 13.2578 80.8721 13.4492 80.8721 13.6543H79.6074C79.6074 13.39 79.6758 13.1279 79.8125 12.8682C79.9492 12.6084 80.1452 12.3737 80.4004 12.1641C80.6602 11.9499 80.9701 11.7812 81.3301 11.6582C81.6947 11.5306 82.1003 11.4668 82.5469 11.4668C83.0846 11.4668 83.5586 11.5579 83.9688 11.7402C84.3835 11.9225 84.707 12.1982 84.9395 12.5674C85.1764 12.932 85.2949 13.39 85.2949 13.9414V17.3867C85.2949 17.6328 85.3154 17.8949 85.3564 18.1729C85.402 18.4508 85.4681 18.6901 85.5547 18.8906V19H84.2354C84.1715 18.8542 84.1214 18.6605 84.085 18.4189C84.0485 18.1729 84.0303 17.945 84.0303 17.7354ZM84.249 14.5156L84.2627 15.4043H82.9844C82.6243 15.4043 82.3031 15.4339 82.0205 15.4932C81.738 15.5479 81.501 15.6322 81.3096 15.7461C81.1182 15.86 80.9723 16.0036 80.8721 16.1768C80.7718 16.3454 80.7217 16.5436 80.7217 16.7715C80.7217 17.0039 80.7741 17.2158 80.8789 17.4072C80.9837 17.5986 81.141 17.7513 81.3506 17.8652C81.5648 17.9746 81.8268 18.0293 82.1367 18.0293C82.5241 18.0293 82.8659 17.9473 83.1621 17.7832C83.4583 17.6191 83.693 17.4186 83.8662 17.1816C84.0439 16.9447 84.1396 16.7145 84.1533 16.4912L84.6934 17.0996C84.6615 17.291 84.5749 17.5029 84.4336 17.7354C84.2923 17.9678 84.1032 18.1911 83.8662 18.4053C83.6338 18.6149 83.3558 18.7904 83.0322 18.9316C82.7132 19.0684 82.3532 19.1367 81.9521 19.1367C81.4508 19.1367 81.0111 19.0387 80.6328 18.8428C80.2591 18.6468 79.9674 18.3848 79.7578 18.0566C79.5527 17.724 79.4502 17.3525 79.4502 16.9424C79.4502 16.5459 79.5277 16.1973 79.6826 15.8965C79.8376 15.5911 80.0609 15.3382 80.3525 15.1377C80.6442 14.9326 80.9951 14.7777 81.4053 14.6729C81.8154 14.568 82.2734 14.5156 82.7793 14.5156H84.249ZM88.6582 8.5V19H87.3867V8.5H88.6582ZM90.3535 15.3838V15.2266C90.3535 14.6934 90.431 14.1989 90.5859 13.7432C90.7409 13.2829 90.9642 12.8841 91.2559 12.5469C91.5475 12.2051 91.9007 11.9408 92.3154 11.7539C92.7301 11.5625 93.195 11.4668 93.71 11.4668C94.2295 11.4668 94.6966 11.5625 95.1113 11.7539C95.5306 11.9408 95.8861 12.2051 96.1777 12.5469C96.474 12.8841 96.6995 13.2829 96.8545 13.7432C97.0094 14.1989 97.0869 14.6934 97.0869 15.2266V15.3838C97.0869 15.917 97.0094 16.4115 96.8545 16.8672C96.6995 17.3229 96.474 17.7217 96.1777 18.0635C95.8861 18.4007 95.5329 18.665 95.1182 18.8564C94.708 19.0433 94.2432 19.1367 93.7236 19.1367C93.2041 19.1367 92.737 19.0433 92.3223 18.8564C91.9076 18.665 91.5521 18.4007 91.2559 18.0635C90.9642 17.7217 90.7409 17.3229 90.5859 16.8672C90.431 16.4115 90.3535 15.917 90.3535 15.3838ZM91.6182 15.2266V15.3838C91.6182 15.7529 91.6615 16.1016 91.748 16.4297C91.8346 16.7533 91.9645 17.0404 92.1377 17.291C92.3154 17.5417 92.5365 17.7399 92.8008 17.8857C93.0651 18.027 93.3727 18.0977 93.7236 18.0977C94.07 18.0977 94.373 18.027 94.6328 17.8857C94.8971 17.7399 95.1159 17.5417 95.2891 17.291C95.4622 17.0404 95.5921 16.7533 95.6787 16.4297C95.7699 16.1016 95.8154 15.7529 95.8154 15.3838V15.2266C95.8154 14.862 95.7699 14.5179 95.6787 14.1943C95.5921 13.8662 95.46 13.5768 95.2822 13.3262C95.109 13.071 94.8903 12.8704 94.626 12.7246C94.3662 12.5788 94.0609 12.5059 93.71 12.5059C93.3636 12.5059 93.0583 12.5788 92.7939 12.7246C92.5342 12.8704 92.3154 13.071 92.1377 13.3262C91.9645 13.5768 91.8346 13.8662 91.748 14.1943C91.6615 14.5179 91.6182 14.862 91.6182 15.2266ZM99.9375 12.7656V19H98.6729V11.6035H99.9033L99.9375 12.7656ZM102.248 11.5625L102.241 12.7383C102.136 12.7155 102.036 12.7018 101.94 12.6973C101.849 12.6882 101.744 12.6836 101.626 12.6836C101.334 12.6836 101.077 12.7292 100.854 12.8203C100.63 12.9115 100.441 13.0391 100.286 13.2031C100.131 13.3672 100.008 13.5632 99.917 13.791C99.8304 14.0143 99.7734 14.2604 99.7461 14.5293L99.3906 14.7344C99.3906 14.2878 99.4339 13.8685 99.5205 13.4766C99.6117 13.0846 99.7507 12.7383 99.9375 12.4375C100.124 12.1322 100.361 11.8952 100.648 11.7266C100.94 11.5534 101.286 11.4668 101.688 11.4668C101.779 11.4668 101.883 11.4782 102.002 11.501C102.12 11.5192 102.202 11.5397 102.248 11.5625Z" fill="white"/>
<defs>
<linearGradient id="paint0_linear_14_40" x1="105.146" y1="2.49999" x2="11.0401" y2="32.6028" gradientUnits="userSpaceOnUse">
<stop stop-color="#5C86F2"/>
<stop offset="1" stop-color="#1C2337"/>
</linearGradient>
</defs>
</svg>
