<svg width="866" height="1160" viewBox="0 0 866 1160" fill="none" xmlns="http://www.w3.org/2000/svg">
<path d="M968.065 900.632C917.558 988.112 805.352 1018.16 717.892 967.666C586.73 891.939 418.353 937.039 342.616 1068.22C292.121 1155.68 179.923 1185.76 92.443 1135.25C4.96301 1084.75 -25.0863 972.54 25.4088 885.08C75.904 797.619 188.122 767.551 275.582 818.046C406.744 893.773 575.12 848.673 650.857 717.493C726.595 586.312 681.483 417.955 550.302 342.218C462.822 291.711 432.773 179.505 483.268 92.0447C533.763 4.58447 645.98 -25.4839 733.441 25.0115C820.902 75.5069 850.97 187.724 800.475 275.184C724.749 406.346 769.85 574.722 901.031 650.459C988.511 700.966 1018.56 813.172 968.065 900.632Z" fill="#59A5F5" fill-opacity="0.2"/>
</svg>
